<mxfile host="65bd71144e">
    <diagram id="tJ_fAMoiQyFf81MBgOPp" name="Page-1">
        <mxGraphModel dx="1456" dy="464" grid="1" gridSize="10" guides="1" tooltips="1" connect="1" arrows="1" fold="1" page="1" pageScale="1" pageWidth="850" pageHeight="1100" background="#ffffff" math="0" shadow="0">
            <root>
                <mxCell id="0"/>
                <mxCell id="1" parent="0"/>
                <mxCell id="22" style="edgeStyle=none;html=1;entryX=0;entryY=0;entryDx=0;entryDy=0;fontSize=14;strokeColor=#000000;" parent="1" source="19" target="21" edge="1">
                    <mxGeometry relative="1" as="geometry"/>
                </mxCell>
                <mxCell id="28" style="edgeStyle=none;html=1;fontSize=14;strokeColor=#000000;" parent="1" source="19" target="27" edge="1">
                    <mxGeometry relative="1" as="geometry"/>
                </mxCell>
                <mxCell id="30" style="edgeStyle=none;html=1;entryX=1;entryY=0.5;entryDx=0;entryDy=0;fontSize=14;strokeColor=#000000;" parent="1" source="19" target="29" edge="1">
                    <mxGeometry relative="1" as="geometry"/>
                </mxCell>
                <mxCell id="32" style="edgeStyle=none;html=1;fontSize=14;strokeColor=#000000;" parent="1" source="19" target="31" edge="1">
                    <mxGeometry relative="1" as="geometry"/>
                </mxCell>
                <mxCell id="34" style="edgeStyle=none;html=1;fontSize=14;strokeColor=#000000;" parent="1" source="19" target="33" edge="1">
                    <mxGeometry relative="1" as="geometry"/>
                </mxCell>
                <mxCell id="274" style="edgeStyle=none;html=1;fontSize=14;strokeColor=#000000;" parent="1" source="19" target="23" edge="1">
                    <mxGeometry relative="1" as="geometry"/>
                </mxCell>
                <mxCell id="19" value="GeneralCustumers" style="rounded=0;whiteSpace=wrap;html=1;strokeColor=#000000;" parent="1" vertex="1">
                    <mxGeometry x="-60" y="150" width="120" height="60" as="geometry"/>
                </mxCell>
                <mxCell id="302" style="edgeStyle=none;html=1;entryX=0.785;entryY=0.893;entryDx=0;entryDy=0;entryPerimeter=0;fontSize=14;strokeColor=#000000;" parent="1" source="20" target="295" edge="1">
                    <mxGeometry relative="1" as="geometry"/>
                </mxCell>
                <mxCell id="303" value="" style="edgeStyle=none;html=1;fontSize=14;strokeColor=#000000;" parent="1" source="20" target="296" edge="1">
                    <mxGeometry relative="1" as="geometry"/>
                </mxCell>
                <mxCell id="304" style="edgeStyle=none;html=1;entryX=0;entryY=0.5;entryDx=0;entryDy=0;fontSize=14;strokeColor=#000000;" parent="1" source="20" target="297" edge="1">
                    <mxGeometry relative="1" as="geometry"/>
                </mxCell>
                <mxCell id="305" style="edgeStyle=none;html=1;entryX=0;entryY=0.5;entryDx=0;entryDy=0;fontSize=14;strokeColor=#000000;" parent="1" source="20" target="298" edge="1">
                    <mxGeometry relative="1" as="geometry"/>
                </mxCell>
                <mxCell id="306" style="edgeStyle=none;html=1;entryX=0.105;entryY=0.214;entryDx=0;entryDy=0;entryPerimeter=0;fontSize=14;strokeColor=#000000;" parent="1" source="20" target="299" edge="1">
                    <mxGeometry relative="1" as="geometry"/>
                </mxCell>
                <mxCell id="307" style="edgeStyle=none;html=1;fontSize=14;strokeColor=#000000;" parent="1" source="20" target="301" edge="1">
                    <mxGeometry relative="1" as="geometry"/>
                </mxCell>
                <mxCell id="308" style="edgeStyle=none;html=1;fontSize=14;strokeColor=#000000;" parent="1" source="20" target="300" edge="1">
                    <mxGeometry relative="1" as="geometry"/>
                </mxCell>
                <mxCell id="20" value="Stores" style="rounded=0;whiteSpace=wrap;html=1;fontSize=14;strokeColor=#000000;" parent="1" vertex="1">
                    <mxGeometry x="280" y="550" width="130" height="60" as="geometry"/>
                </mxCell>
                <mxCell id="21" value="&lt;u&gt;custumer_id&lt;/u&gt;" style="ellipse;whiteSpace=wrap;html=1;fontSize=14;strokeColor=#000000;" parent="1" vertex="1">
                    <mxGeometry x="130" y="250" width="110" height="50" as="geometry"/>
                </mxCell>
                <mxCell id="23" value="fullname" style="ellipse;whiteSpace=wrap;html=1;fontSize=14;" parent="1" vertex="1">
                    <mxGeometry x="-60" y="40" width="120" height="50" as="geometry"/>
                </mxCell>
                <mxCell id="27" value="citizen_id" style="ellipse;whiteSpace=wrap;html=1;fontSize=14;strokeColor=#000000;" parent="1" vertex="1">
                    <mxGeometry x="120" y="130" width="120" height="50" as="geometry"/>
                </mxCell>
                <mxCell id="29" value="email" style="ellipse;whiteSpace=wrap;html=1;fontSize=14;strokeColor=#000000;" parent="1" vertex="1">
                    <mxGeometry x="-250" y="100" width="120" height="50" as="geometry"/>
                </mxCell>
                <mxCell id="31" value="birthday" style="ellipse;whiteSpace=wrap;html=1;fontSize=14;strokeColor=#000000;" parent="1" vertex="1">
                    <mxGeometry x="-250" y="255" width="120" height="40" as="geometry"/>
                </mxCell>
                <mxCell id="33" value="phone_number" style="ellipse;whiteSpace=wrap;html=1;fontSize=14;strokeColor=#000000;" parent="1" vertex="1">
                    <mxGeometry x="-60" y="250" width="120" height="50" as="geometry"/>
                </mxCell>
                <mxCell id="277" style="edgeStyle=none;html=1;fontSize=14;strokeColor=#000000;" parent="1" source="275" target="276" edge="1">
                    <mxGeometry relative="1" as="geometry"/>
                </mxCell>
                <mxCell id="279" style="edgeStyle=none;html=1;fontSize=14;strokeColor=#000000;" parent="1" source="275" target="278" edge="1">
                    <mxGeometry relative="1" as="geometry"/>
                </mxCell>
                <mxCell id="281" style="edgeStyle=none;html=1;entryX=0;entryY=0.5;entryDx=0;entryDy=0;fontSize=14;strokeColor=#000000;" parent="1" source="275" target="280" edge="1">
                    <mxGeometry relative="1" as="geometry"/>
                </mxCell>
                <mxCell id="284" style="edgeStyle=none;html=1;entryX=0;entryY=0.5;entryDx=0;entryDy=0;fontSize=14;strokeColor=#000000;" parent="1" source="275" target="282" edge="1">
                    <mxGeometry relative="1" as="geometry"/>
                </mxCell>
                <mxCell id="286" style="edgeStyle=none;html=1;fontSize=14;strokeColor=#000000;" parent="1" source="275" target="285" edge="1">
                    <mxGeometry relative="1" as="geometry"/>
                </mxCell>
                <mxCell id="288" style="edgeStyle=none;html=1;fontSize=14;strokeColor=#000000;" parent="1" source="275" target="287" edge="1">
                    <mxGeometry relative="1" as="geometry"/>
                </mxCell>
                <mxCell id="290" style="edgeStyle=none;html=1;fontSize=14;strokeColor=#000000;" parent="1" source="275" target="289" edge="1">
                    <mxGeometry relative="1" as="geometry">
                        <mxPoint x="627.6228220916687" y="249.79271227324898" as="targetPoint"/>
                    </mxGeometry>
                </mxCell>
                <mxCell id="293" style="edgeStyle=none;html=1;entryX=1;entryY=0.5;entryDx=0;entryDy=0;fontSize=14;strokeColor=#000000;" parent="1" source="275" target="292" edge="1">
                    <mxGeometry relative="1" as="geometry"/>
                </mxCell>
                <mxCell id="294" style="edgeStyle=none;html=1;entryX=1;entryY=1;entryDx=0;entryDy=0;fontSize=14;strokeColor=#000000;" parent="1" source="275" target="291" edge="1">
                    <mxGeometry relative="1" as="geometry"/>
                </mxCell>
                <mxCell id="275" value="StudentCustumers" style="rounded=0;whiteSpace=wrap;html=1;fontSize=14;strokeColor=#000000;" parent="1" vertex="1">
                    <mxGeometry x="690" y="180" width="120" height="60" as="geometry"/>
                </mxCell>
                <mxCell id="276" value="&lt;u&gt;custumer_id&lt;/u&gt;" style="ellipse;whiteSpace=wrap;html=1;fontSize=14;strokeColor=#000000;" parent="1" vertex="1">
                    <mxGeometry x="595" y="70" width="120" height="50" as="geometry"/>
                </mxCell>
                <mxCell id="278" value="fullname" style="ellipse;whiteSpace=wrap;html=1;fontSize=14;strokeColor=#000000;" parent="1" vertex="1">
                    <mxGeometry x="760" y="70" width="120" height="50" as="geometry"/>
                </mxCell>
                <mxCell id="280" value="academy" style="ellipse;whiteSpace=wrap;html=1;fontSize=14;strokeColor=#000000;" parent="1" vertex="1">
                    <mxGeometry x="880" y="130" width="120" height="45" as="geometry"/>
                </mxCell>
                <mxCell id="282" value="student_code" style="ellipse;whiteSpace=wrap;html=1;fontSize=14;strokeColor=#000000;" parent="1" vertex="1">
                    <mxGeometry x="880" y="210" width="120" height="50" as="geometry"/>
                </mxCell>
                <mxCell id="285" value="card_image_url" style="ellipse;whiteSpace=wrap;html=1;fontSize=14;strokeColor=#000000;" parent="1" vertex="1">
                    <mxGeometry x="800" y="280" width="120" height="50" as="geometry"/>
                </mxCell>
                <mxCell id="287" value="card_expired_date" style="ellipse;whiteSpace=wrap;html=1;fontSize=14;strokeColor=#000000;" parent="1" vertex="1">
                    <mxGeometry x="650" y="290" width="120" height="55" as="geometry"/>
                </mxCell>
                <mxCell id="289" value="email" style="ellipse;whiteSpace=wrap;html=1;fontSize=14;strokeColor=#000000;" parent="1" vertex="1">
                    <mxGeometry x="510" y="240" width="120" height="50" as="geometry"/>
                </mxCell>
                <mxCell id="291" value="birthday" style="ellipse;whiteSpace=wrap;html=1;fontSize=14;strokeColor=#000000;" parent="1" vertex="1">
                    <mxGeometry x="425" y="70" width="120" height="60" as="geometry"/>
                </mxCell>
                <mxCell id="292" value="phone_number" style="ellipse;whiteSpace=wrap;html=1;fontSize=14;strokeColor=#000000;" parent="1" vertex="1">
                    <mxGeometry x="395" y="175" width="120" height="60" as="geometry"/>
                </mxCell>
                <mxCell id="295" value="&lt;u&gt;store_id&lt;/u&gt;" style="ellipse;whiteSpace=wrap;html=1;fontSize=14;strokeColor=#000000;" parent="1" vertex="1">
                    <mxGeometry x="140" y="470" width="120" height="50" as="geometry"/>
                </mxCell>
                <mxCell id="296" value="entrepreneur_name" style="ellipse;whiteSpace=wrap;html=1;fontSize=14;strokeColor=#000000;" parent="1" vertex="1">
                    <mxGeometry x="280" y="420" width="120" height="60" as="geometry"/>
                </mxCell>
                <mxCell id="297" value="name_of_store" style="ellipse;whiteSpace=wrap;html=1;fontSize=14;strokeColor=#000000;" parent="1" vertex="1">
                    <mxGeometry x="440" y="480" width="120" height="50" as="geometry"/>
                </mxCell>
                <mxCell id="298" value="legal_registration_number" style="ellipse;whiteSpace=wrap;html=1;fontSize=14;strokeColor=#000000;" parent="1" vertex="1">
                    <mxGeometry x="450" y="555" width="190" height="50" as="geometry"/>
                </mxCell>
                <mxCell id="299" value="legal_entity_document_url" style="ellipse;whiteSpace=wrap;html=1;fontSize=14;strokeColor=#000000;" parent="1" vertex="1">
                    <mxGeometry x="440" y="640" width="210" height="80" as="geometry"/>
                </mxCell>
                <mxCell id="300" value="email" style="ellipse;whiteSpace=wrap;html=1;fontSize=14;strokeColor=#000000;" parent="1" vertex="1">
                    <mxGeometry x="100" y="560" width="120" height="80" as="geometry"/>
                </mxCell>
                <mxCell id="301" value="phone_number" style="ellipse;whiteSpace=wrap;html=1;fontSize=14;strokeColor=#000000;" parent="1" vertex="1">
                    <mxGeometry x="250" y="660" width="120" height="80" as="geometry"/>
                </mxCell>
                <mxCell id="312" style="edgeStyle=none;html=1;fontSize=14;strokeColor=#000000;" parent="1" source="310" target="311" edge="1">
                    <mxGeometry relative="1" as="geometry"/>
                </mxCell>
                <mxCell id="322" style="edgeStyle=none;html=1;entryX=0.388;entryY=0.996;entryDx=0;entryDy=0;entryPerimeter=0;fontSize=14;strokeColor=#000000;" parent="1" source="310" target="313" edge="1">
                    <mxGeometry relative="1" as="geometry"/>
                </mxCell>
                <mxCell id="323" style="edgeStyle=none;html=1;entryX=0;entryY=0.5;entryDx=0;entryDy=0;fontSize=14;strokeColor=#000000;" parent="1" source="310" target="314" edge="1">
                    <mxGeometry relative="1" as="geometry"/>
                </mxCell>
                <mxCell id="324" style="edgeStyle=none;html=1;fontSize=14;strokeColor=#000000;" parent="1" source="310" target="315" edge="1">
                    <mxGeometry relative="1" as="geometry"/>
                </mxCell>
                <mxCell id="310" value="Books" style="rounded=0;whiteSpace=wrap;html=1;fontSize=14;strokeColor=#000000;" parent="1" vertex="1">
                    <mxGeometry x="-180" y="770" width="120" height="60" as="geometry"/>
                </mxCell>
                <mxCell id="311" value="&lt;u&gt;book_id&lt;/u&gt;" style="ellipse;whiteSpace=wrap;html=1;fontSize=14;strokeColor=#000000;" parent="1" vertex="1">
                    <mxGeometry x="-360" y="850" width="120" height="80" as="geometry"/>
                </mxCell>
                <mxCell id="313" value="image_url" style="ellipse;whiteSpace=wrap;html=1;fontSize=14;strokeColor=#000000;" parent="1" vertex="1">
                    <mxGeometry x="-10" y="710" width="120" height="80" as="geometry"/>
                </mxCell>
                <mxCell id="314" value="prices" style="ellipse;whiteSpace=wrap;html=1;fontSize=14;strokeColor=#000000;" parent="1" vertex="1">
                    <mxGeometry x="-10" y="850" width="120" height="70" as="geometry"/>
                </mxCell>
                <mxCell id="315" value="categories" style="ellipse;whiteSpace=wrap;html=1;fontSize=14;strokeColor=#000000;" parent="1" vertex="1">
                    <mxGeometry x="-200" y="890" width="120" height="75" as="geometry"/>
                </mxCell>
                <mxCell id="325" style="edgeStyle=none;html=1;fontSize=14;strokeColor=#000000;" parent="1" source="317" target="319" edge="1">
                    <mxGeometry relative="1" as="geometry"/>
                </mxCell>
                <mxCell id="326" style="edgeStyle=none;html=1;entryX=1;entryY=1;entryDx=0;entryDy=0;fontSize=14;strokeColor=#000000;" parent="1" source="317" target="318" edge="1">
                    <mxGeometry relative="1" as="geometry"/>
                </mxCell>
                <mxCell id="327" style="edgeStyle=none;html=1;fontSize=14;strokeColor=#000000;" parent="1" source="317" target="320" edge="1">
                    <mxGeometry relative="1" as="geometry"/>
                </mxCell>
                <mxCell id="328" style="edgeStyle=none;html=1;fontSize=14;strokeColor=#000000;" parent="1" source="317" target="321" edge="1">
                    <mxGeometry relative="1" as="geometry"/>
                </mxCell>
                <mxCell id="330" style="edgeStyle=none;html=1;entryX=0.5;entryY=0;entryDx=0;entryDy=0;fontSize=14;strokeColor=#000000;" parent="1" source="317" target="329" edge="1">
                    <mxGeometry relative="1" as="geometry"/>
                </mxCell>
                <mxCell id="317" value="Orders" style="rounded=0;whiteSpace=wrap;html=1;fontSize=14;strokeColor=#000000;" parent="1" vertex="1">
                    <mxGeometry x="-590" y="472.5" width="120" height="60" as="geometry"/>
                </mxCell>
                <mxCell id="318" value="&lt;u&gt;payment_id&lt;/u&gt;" style="ellipse;whiteSpace=wrap;html=1;fontSize=14;" parent="1" vertex="1">
                    <mxGeometry x="-730" y="392.5" width="120" height="60" as="geometry"/>
                </mxCell>
                <mxCell id="319" value="book_id" style="ellipse;whiteSpace=wrap;html=1;fontSize=14;strokeColor=#000000;" parent="1" vertex="1">
                    <mxGeometry x="-590" y="362.5" width="120" height="70" as="geometry"/>
                </mxCell>
                <mxCell id="320" value="amount" style="ellipse;whiteSpace=wrap;html=1;fontSize=14;" parent="1" vertex="1">
                    <mxGeometry x="-740" y="522.5" width="120" height="65" as="geometry"/>
                </mxCell>
                <mxCell id="321" value="total_prices" style="ellipse;whiteSpace=wrap;html=1;fontSize=14;strokeColor=#000000;" parent="1" vertex="1">
                    <mxGeometry x="-580" y="570" width="120" height="60" as="geometry"/>
                </mxCell>
                <mxCell id="331" style="edgeStyle=none;html=1;entryX=0.5;entryY=0;entryDx=0;entryDy=0;fontSize=14;exitX=0.5;exitY=1;exitDx=0;exitDy=0;strokeColor=#000000;" parent="1" source="329" target="310" edge="1">
                    <mxGeometry relative="1" as="geometry"/>
                </mxCell>
                <mxCell id="329" value="Buy" style="rhombus;whiteSpace=wrap;html=1;fontSize=14;strokeColor=#000000;" parent="1" vertex="1">
                    <mxGeometry x="-380" y="560" width="200" height="80" as="geometry"/>
                </mxCell>
            </root>
        </mxGraphModel>
    </diagram>
</mxfile>